<svg id="visual" viewBox="0 0 200 900" width="200" height="900" xmlns="http://www.w3.org/2000/svg" xmlns:xlink="http://www.w3.org/1999/xlink" version="1.1"><rect x="0" y="0" width="200" height="900" fill="#111"></rect><path d="M37 0L35.2 21.5C33.3 43 29.7 86 33.5 128.8C37.3 171.7 48.7 214.3 53.7 257.2C58.7 300 57.3 343 51.7 385.8C46 428.7 36 471.3 32.5 514.2C29 557 32 600 33.8 642.8C35.7 685.7 36.3 728.3 38.5 771.2C40.7 814 44.3 857 46.2 878.5L48 900L0 900L0 878.5C0 857 0 814 0 771.2C0 728.3 0 685.7 0 642.8C0 600 0 557 0 514.2C0 471.3 0 428.7 0 385.8C0 343 0 300 0 257.2C0 214.3 0 171.7 0 128.8C0 86 0 43 0 21.5L0 0Z" fill="#6600cc" stroke-linecap="round" stroke-linejoin="miter"></path></svg>